# xmcd
#
# Track frame offsets:
#	150
#	22214
#	38180
#	60391
#	74672
#	91682
#	110411
#	132101
#	146943
#	163902
#	184501
#	199275
#	216547
#	231924
#	249342
#	267233
#	284577
#	305283
#
# Disc length: 4326 seconds
#
# Revision: 0
# Processed by: cddbd v1.5.1PL0 Copyright (c) Steve Scherf et al.
# Submitted via: dBpowerAMP V4.0
#
DISCID=1810e412
DTITLE=de tropeadas e galpoes - diversos
DYEAR=1900
DGENRE=Country
TTITLE0=Cruzada -  roberto lucardo
TTITLE1=remoendo capim - bugre do caaro
TTITLE2=de capa na mala - eder goulart
TTITLE3=de fogoes e inverneras - jari terres
TTITLE4=pra carregar a querencia - jairo "lambari" fernandes
TTITLE5=passo das tropas - helmo de freitas
TTITLE6=onde andara - luiz marenco e joca martins
TTITLE7=chote e recado - joca martins
TTITLE8=de tropa, tempo e saudade - juliano javoski
TTITLE9=embaixo dos bastos - jairos 'lambari' antunes
TTITLE10=em cima do laco - joca martins
TTITLE11=estancias da fronteira - luiz marenco
TTITLE12=tropilhas e ginetes - rogerio melo
TTITLE13=remembranca - juliano javoski
TTITLE14=do fundo da grota - baitaca
TTITLE15=um vistaco na tropa - luiz marenco e jari terres
TTITLE16=america grande do sul - eduardo martinez
TTITLE17=memorias do tempo - omair trindade
EXTD=
EXTT0=
EXTT1=
EXTT2=
EXTT3=
EXTT4=
EXTT5=
EXTT6=
EXTT7=
EXTT8=
EXTT9=
EXTT10=
EXTT11=
EXTT12=
EXTT13=
EXTT14=
EXTT15=
EXTT16=
EXTT17=
PLAYORDER=
